<svg width="676" height="676" viewBox="0 0 676 676" fill="none" xmlns="http://www.w3.org/2000/svg">
<mask id="mask0_1729_22" style="mask-type:luminance" maskUnits="userSpaceOnUse" x="0" y="0" width="676" height="676">
<path d="M675.667 0H0V675.172H675.667V0Z" fill="white"/>
</mask>
<g mask="url(#mask0_1729_22)">
<path d="M14.7756 203.074C35.6902 109.064 109.149 35.6598 203.227 14.7605C291.887 -4.92602 383.783 -4.92602 472.443 14.7605C566.52 35.6475 639.993 109.064 660.892 203.074C680.595 291.67 680.595 383.499 660.892 472.095C639.993 566.103 566.52 639.521 472.443 660.409C383.783 680.095 291.887 680.095 203.227 660.409C109.149 639.521 35.6779 566.103 14.7756 472.095C-4.92521 383.499 -4.92521 291.67 14.7756 203.074Z" fill="#190F37"/>
<path d="M536.344 334.001C528.419 344.128 516.612 349.423 504.67 349.423C496.025 349.423 487.318 346.654 479.98 340.919L337.275 229.481L195.73 340.004C178.256 353.657 153.017 350.571 139.365 333.098C125.714 315.637 128.803 290.416 146.289 276.774L206.853 229.493C206.853 229.493 206.89 229.469 206.902 229.457L312.561 146.948C327.091 135.613 347.47 135.613 362.001 146.948L529.445 277.69C546.918 291.331 550.018 316.552 536.37 334.001H536.344Z" fill="url(#paint0_linear_1729_22)"/>
<path d="M536.339 334C528.414 344.127 516.606 349.423 504.664 349.423C496.019 349.423 487.313 346.653 479.974 340.918L337.269 229.48C337.269 229.48 275.935 176.427 206.885 229.443L312.542 146.935C327.073 135.6 347.453 135.6 361.983 146.935L529.427 277.676C546.902 291.318 550.002 316.539 536.349 333.987L536.339 334Z" fill="white"/>
<path d="M139.344 511.766C147.269 521.894 159.076 527.189 171.019 527.189C179.664 527.189 188.37 524.419 195.708 518.684L338.414 407.246L479.959 517.769C497.432 531.423 522.672 528.336 536.323 510.863C549.975 493.403 546.886 468.181 529.4 454.54L468.835 407.259C468.835 407.259 468.798 407.234 468.786 407.222L363.128 324.714C348.597 313.379 328.218 313.379 313.687 324.714L146.243 455.455C128.77 469.097 125.668 494.317 139.32 511.766H139.344Z" fill="url(#paint1_linear_1729_22)"/>
<path d="M139.342 511.767C147.267 521.895 159.075 527.19 171.017 527.19C179.662 527.19 188.368 524.421 195.707 518.686L338.412 407.247C338.412 407.247 399.746 354.194 468.797 407.211L363.138 324.703C348.608 313.368 328.228 313.368 313.698 324.703L146.254 455.444C128.78 469.086 125.679 494.307 139.33 511.755L139.342 511.767Z" fill="white"/>
<circle cx="338.421" cy="486.975" r="44.6498" transform="rotate(15 338.421 486.975)" fill="url(#paint2_linear_1729_22)"/>
<g filter="url(#filter0_d_1729_22)">
<path d="M295.292 475.419C301.675 451.6 326.158 437.464 349.977 443.847C376.176 450.867 381.63 475.656 381.63 475.656C375.248 499.476 328.148 522.239 304.329 515.857C304.329 515.857 288.91 499.238 295.292 475.419Z" fill="white"/>
</g>
</g>
<defs>
<filter id="filter0_d_1729_22" x="285.745" y="432.314" width="111.886" height="98.6313" filterUnits="userSpaceOnUse" color-interpolation-filters="sRGB">
<feFlood flood-opacity="0" result="BackgroundImageFix"/>
<feColorMatrix in="SourceAlpha" type="matrix" values="0 0 0 0 0 0 0 0 0 0 0 0 0 0 0 0 0 0 127 0" result="hardAlpha"/>
<feOffset dx="4" dy="2"/>
<feGaussianBlur stdDeviation="6"/>
<feComposite in2="hardAlpha" operator="out"/>
<feColorMatrix type="matrix" values="0 0 0 0 0.67451 0 0 0 0 0.713726 0 0 0 0 0.772549 0 0 0 0.4 0"/>
<feBlend mode="normal" in2="BackgroundImageFix" result="effect1_dropShadow_1729_22"/>
<feBlend mode="normal" in="SourceGraphic" in2="effect1_dropShadow_1729_22" result="shape"/>
</filter>
<linearGradient id="paint0_linear_1729_22" x1="130.842" y1="243.928" x2="544.856" y2="243.928" gradientUnits="userSpaceOnUse">
<stop stop-color="#F2F0F7"/>
<stop offset="1" stop-color="#655D7D"/>
</linearGradient>
<linearGradient id="paint1_linear_1729_22" x1="130.833" y1="421.693" x2="544.845" y2="421.693" gradientUnits="userSpaceOnUse">
<stop stop-color="#655D7D"/>
<stop offset="1" stop-color="#F2F0F7"/>
</linearGradient>
<linearGradient id="paint2_linear_1729_22" x1="293.771" y1="442.325" x2="383.071" y2="531.625" gradientUnits="userSpaceOnUse">
<stop stop-color="#655D7D"/>
<stop offset="0.9" stop-color="#F2F0F7"/>
</linearGradient>
</defs>
</svg>
