<svg width="930" height="929" viewBox="0 0 930 929" fill="none" xmlns="http://www.w3.org/2000/svg">
<g filter="url(#filter0_d_1735_39)">
<mask id="mask0_1735_39" style="mask-type:luminance" maskUnits="userSpaceOnUse" x="52" y="44" width="810" height="809">
<path d="M861.592 44H52V853H861.592V44Z" fill="white"/>
</mask>
<g mask="url(#mask0_1735_39)">
<path d="M69.7043 287.326C94.7644 174.682 182.783 86.7279 295.509 61.6861C401.743 38.0975 511.854 38.0975 618.088 61.6861C730.812 86.7132 818.848 174.682 843.889 287.326C867.498 393.482 867.498 503.514 843.889 609.67C818.848 722.312 730.812 810.282 618.088 835.31C511.854 858.899 401.743 858.899 295.509 835.31C182.783 810.282 94.7497 722.312 69.7043 609.67C46.0986 503.514 46.0986 393.482 69.7043 287.326Z" fill="url(#paint0_radial_1735_39)"/>
<path d="M694.654 444.204C685.159 456.338 671.011 462.684 656.702 462.684C646.343 462.684 635.911 459.365 627.118 452.493L456.127 318.967L286.526 451.397C265.589 467.757 235.347 464.058 218.989 443.122C202.632 422.201 206.333 391.98 227.285 375.635L299.854 318.982C299.854 318.982 299.898 318.952 299.913 318.938L426.514 220.075C443.924 206.493 468.343 206.493 485.755 220.075L686.388 376.732C707.325 393.077 711.038 423.297 694.686 444.204H694.654Z" fill="url(#paint1_linear_1735_39)"/>
<path d="M694.648 444.203C685.152 456.338 671.004 462.683 656.695 462.683C646.337 462.683 635.905 459.364 627.111 452.493L456.12 318.966C456.12 318.966 382.629 255.397 299.892 318.922L426.492 220.06C443.904 206.478 468.323 206.478 485.733 220.06L686.367 376.716C707.306 393.061 711.019 423.282 694.661 444.188L694.648 444.203Z" fill="#0F172A"/>
<path d="M218.964 657.205C228.46 669.34 242.608 675.685 256.917 675.685C267.276 675.685 277.707 672.366 286.5 665.494L457.492 531.968L627.093 664.398C648.03 680.758 678.272 677.059 694.629 656.123C710.988 635.201 707.286 604.981 686.333 588.636L613.764 531.983C613.764 531.983 613.72 531.953 613.706 531.939L487.105 433.077C469.694 419.495 445.275 419.495 427.864 433.077L227.23 589.732C206.294 606.078 202.578 636.298 218.935 657.205H218.964Z" fill="url(#paint2_linear_1735_39)"/>
<path d="M218.962 657.206C228.457 669.341 242.606 675.686 256.914 675.686C267.273 675.686 277.705 672.367 286.498 665.496L457.489 531.969C457.489 531.969 530.981 468.4 613.719 531.925L487.117 433.063C469.706 419.481 445.287 419.481 427.877 433.063L227.243 589.719C206.306 606.064 202.59 636.285 218.947 657.191L218.962 657.206Z" fill="#0F172A"/>
</g>
<g filter="url(#filter1_d_1735_39)">
<circle cx="457.5" cy="637.5" r="53.5" transform="rotate(15 457.5 637.5)" fill="url(#paint3_linear_1735_39)"/>
</g>
<g filter="url(#filter2_d_1735_39)">
<path d="M405.823 623.653C413.47 595.113 442.806 578.176 471.347 585.823C502.739 594.235 509.274 623.938 509.274 623.938C501.627 652.479 445.192 679.754 416.651 672.107C416.651 672.107 398.176 652.194 405.823 623.653Z" fill="#0F172A"/>
</g>
</g>
<defs>
<filter id="filter0_d_1735_39" x="0" y="0" width="929.592" height="929" filterUnits="userSpaceOnUse" color-interpolation-filters="sRGB">
<feFlood flood-opacity="0" result="BackgroundImageFix"/>
<feColorMatrix in="SourceAlpha" type="matrix" values="0 0 0 0 0 0 0 0 0 0 0 0 0 0 0 0 0 0 127 0" result="hardAlpha"/>
<feOffset dx="8" dy="16"/>
<feGaussianBlur stdDeviation="30"/>
<feComposite in2="hardAlpha" operator="out"/>
<feColorMatrix type="matrix" values="0 0 0 0 0.941176 0 0 0 0 0.952941 0 0 0 0 0.972549 0 0 0 0.25 0"/>
<feBlend mode="normal" in2="BackgroundImageFix" result="effect1_dropShadow_1735_39"/>
<feBlend mode="normal" in="SourceGraphic" in2="effect1_dropShadow_1735_39" result="shape"/>
</filter>
<filter id="filter1_d_1735_39" x="395.987" y="573.987" width="131.027" height="131.026" filterUnits="userSpaceOnUse" color-interpolation-filters="sRGB">
<feFlood flood-opacity="0" result="BackgroundImageFix"/>
<feColorMatrix in="SourceAlpha" type="matrix" values="0 0 0 0 0 0 0 0 0 0 0 0 0 0 0 0 0 0 127 0" result="hardAlpha"/>
<feOffset dx="4" dy="2"/>
<feGaussianBlur stdDeviation="6"/>
<feComposite in2="hardAlpha" operator="out"/>
<feColorMatrix type="matrix" values="0 0 0 0 0 0 0 0 0 0 0 0 0 0 0 0 0 0 0.25 0"/>
<feBlend mode="normal" in2="BackgroundImageFix" result="effect1_dropShadow_1735_39"/>
<feBlend mode="normal" in="SourceGraphic" in2="effect1_dropShadow_1735_39" result="shape"/>
</filter>
<filter id="filter2_d_1735_39" x="395.969" y="573.987" width="129.306" height="113.424" filterUnits="userSpaceOnUse" color-interpolation-filters="sRGB">
<feFlood flood-opacity="0" result="BackgroundImageFix"/>
<feColorMatrix in="SourceAlpha" type="matrix" values="0 0 0 0 0 0 0 0 0 0 0 0 0 0 0 0 0 0 127 0" result="hardAlpha"/>
<feOffset dx="4" dy="2"/>
<feGaussianBlur stdDeviation="6"/>
<feComposite in2="hardAlpha" operator="out"/>
<feColorMatrix type="matrix" values="0 0 0 0 0.67451 0 0 0 0 0.713726 0 0 0 0 0.772549 0 0 0 0.4 0"/>
<feBlend mode="normal" in2="BackgroundImageFix" result="effect1_dropShadow_1735_39"/>
<feBlend mode="normal" in="SourceGraphic" in2="effect1_dropShadow_1735_39" result="shape"/>
</filter>
<radialGradient id="paint0_radial_1735_39" cx="0" cy="0" r="1" gradientUnits="userSpaceOnUse" gradientTransform="translate(560.99 487.294) rotate(105.902) scale(380.261 380.496)">
<stop stop-color="white"/>
<stop offset="1" stop-color="#F0F2F8"/>
</radialGradient>
<linearGradient id="paint1_linear_1735_39" x1="208.777" y1="336.277" x2="704.853" y2="336.277" gradientUnits="userSpaceOnUse">
<stop stop-color="#8A97A9"/>
<stop offset="1" stop-color="#0A1523"/>
</linearGradient>
<linearGradient id="paint2_linear_1735_39" x1="208.766" y1="549.278" x2="704.84" y2="549.278" gradientUnits="userSpaceOnUse">
<stop stop-color="#0A1523"/>
<stop offset="1" stop-color="#8A97A9"/>
</linearGradient>
<linearGradient id="paint3_linear_1735_39" x1="382" y1="623" x2="558.5" y2="691" gradientUnits="userSpaceOnUse">
<stop offset="0.0912419" stop-color="#0A1523"/>
<stop offset="0.9" stop-color="#8A97A9"/>
</linearGradient>
</defs>
</svg>
