<svg width="2346" height="676" viewBox="0 0 2346 676" fill="none" xmlns="http://www.w3.org/2000/svg">
<mask id="mask0_1747_16" style="mask-type:luminance" maskUnits="userSpaceOnUse" x="0" y="0" width="676" height="676">
<path d="M675.667 0H0V675.172H675.667V0Z" fill="white"/>
</mask>
<g mask="url(#mask0_1747_16)">
<path d="M14.7756 203.074C35.6902 109.064 109.149 35.6598 203.227 14.7605C291.887 -4.92602 383.783 -4.92602 472.443 14.7605C566.52 35.6475 639.993 109.064 660.892 203.074C680.595 291.67 680.595 383.499 660.892 472.095C639.993 566.103 566.52 639.521 472.443 660.409C383.783 680.095 291.887 680.095 203.227 660.409C109.149 639.521 35.6779 566.103 14.7756 472.095C-4.92521 383.499 -4.92521 291.67 14.7756 203.074Z" fill="url(#paint0_radial_1747_16)"/>
<path d="M536.344 334.001C528.419 344.128 516.612 349.423 504.67 349.423C496.025 349.423 487.318 346.654 479.98 340.919L337.275 229.481L195.73 340.004C178.256 353.657 153.017 350.571 139.365 333.098C125.714 315.637 128.803 290.416 146.289 276.774L206.853 229.493C206.853 229.493 206.89 229.469 206.902 229.457L312.561 146.948C327.091 135.613 347.47 135.613 362.001 146.948L529.445 277.69C546.918 291.331 550.018 316.552 536.37 334.001H536.344Z" fill="url(#paint1_linear_1747_16)"/>
<path d="M536.339 334C528.414 344.127 516.606 349.423 504.664 349.423C496.019 349.423 487.313 346.653 479.974 340.918L337.269 229.48C337.269 229.48 275.935 176.427 206.885 229.443L312.542 146.935C327.073 135.6 347.453 135.6 361.983 146.935L529.427 277.676C546.902 291.318 550.002 316.539 536.349 333.987L536.339 334Z" fill="white"/>
<path d="M139.344 511.766C147.269 521.894 159.076 527.189 171.019 527.189C179.664 527.189 188.37 524.419 195.708 518.684L338.414 407.246L479.959 517.769C497.432 531.423 522.672 528.336 536.323 510.863C549.975 493.403 546.886 468.181 529.399 454.54L468.835 407.259C468.835 407.259 468.798 407.234 468.786 407.222L363.128 324.714C348.597 313.379 328.218 313.379 313.687 324.714L146.243 455.455C128.77 469.097 125.668 494.317 139.32 511.766H139.344Z" fill="url(#paint2_linear_1747_16)"/>
<path d="M139.342 511.767C147.267 521.895 159.075 527.19 171.017 527.19C179.662 527.19 188.368 524.421 195.707 518.686L338.412 407.247C338.412 407.247 399.746 354.194 468.797 407.211L363.138 324.703C348.608 313.368 328.228 313.368 313.698 324.703L146.254 455.444C128.78 469.086 125.679 494.307 139.33 511.755L139.342 511.767Z" fill="white"/>
</g>
<g filter="url(#filter0_d_1747_16)">
<circle cx="338.421" cy="486.975" r="44.6498" transform="rotate(15 338.421 486.975)" fill="url(#paint3_linear_1747_16)"/>
</g>
<g filter="url(#filter1_d_1747_16)">
<path d="M295.292 475.419C301.675 451.6 326.158 437.464 349.977 443.847C376.176 450.867 381.63 475.656 381.63 475.656C375.248 499.476 328.148 522.239 304.329 515.857C304.329 515.857 288.91 499.238 295.292 475.419Z" fill="white"/>
</g>
<path d="M2191.53 486.764V230.189H2262.22V266.843H2264.84C2270.6 258.988 2276.88 252.181 2284.21 245.898C2296.78 235.426 2315.63 224.953 2340.76 224.953H2346V300.878L2340.24 299.831C2336.05 299.307 2330.29 298.26 2322.44 298.26C2288.4 298.26 2262.22 324.441 2262.22 366.331V486.764H2191.53Z" fill="#0F072A"/>
<path d="M2070.89 486.763V120.229H2141.58V486.763H2070.89Z" fill="#0F072A"/>
<path d="M1767.13 486.763V120.229H1837.82V266.842H1840.44C1845.68 258.988 1852.48 252.181 1860.34 245.898C1874.47 235.425 1893.85 224.953 1921.6 224.953C1982.34 224.953 2036.8 280.457 2036.8 358.476C2036.8 437.019 1982.34 492 1921.6 492C1893.85 492 1874.47 481.527 1860.34 471.055C1852.48 464.771 1845.68 457.964 1840.44 450.11H1837.82V486.763H1767.13ZM1900.66 426.547C1937.31 426.547 1966.11 397.748 1966.11 358.476C1966.11 319.205 1937.31 290.405 1900.66 290.405C1864 290.405 1835.2 319.205 1835.2 358.476C1835.2 397.748 1864 426.547 1900.66 426.547Z" fill="#0F072A"/>
<path d="M1597.04 426.547C1633.69 426.547 1662.49 397.748 1662.49 358.477C1662.49 319.205 1633.69 290.406 1597.04 290.406C1560.38 290.406 1531.58 319.205 1531.58 358.477C1531.58 397.748 1560.38 426.547 1597.04 426.547ZM1460.9 358.477C1460.9 285.17 1521.11 224.953 1597.04 224.953C1672.96 224.953 1733.18 285.17 1733.18 358.477C1733.18 431.783 1672.96 492 1597.04 492C1521.11 492 1460.9 431.783 1460.9 358.477Z" fill="#0F072A"/>
<path d="M1034.27 486.764V230.189H1104.96V266.843H1107.57C1112.29 258.988 1117.52 252.181 1124.33 245.898C1136.37 235.426 1153.13 224.953 1178.26 224.953C1205.49 224.953 1224.87 236.473 1236.91 247.469C1243.72 253.752 1249.48 261.083 1254.19 269.461H1256.81C1262.57 261.083 1269.9 253.752 1278.28 247.469C1292.41 236.473 1312.83 224.953 1340.59 224.953C1390.85 224.953 1429.6 264.225 1429.6 327.059V486.764H1358.91V337.532C1358.91 308.209 1343.73 293.024 1317.02 293.024C1287.7 293.024 1267.28 313.969 1267.28 345.386V486.764H1196.59V337.532C1196.59 308.209 1181.41 293.024 1154.7 293.024C1125.38 293.024 1104.96 313.969 1104.96 345.386V486.764H1034.27Z" fill="#0F072A"/>
<path d="M916.637 486.764V230.19H987.326V486.764H916.637Z" fill="#0F072A"/>
<path d="M952.842 114.393C930.327 114.393 912 132.72 912 153.665C912 174.609 929.803 192.936 952.319 192.936C974.835 192.936 993.161 174.609 993.161 153.665C993.161 132.72 975.358 114.393 952.842 114.393Z" fill="url(#paint4_linear_1747_16)"/>
<defs>
<filter id="filter0_d_1747_16" x="285.76" y="432.314" width="113.322" height="113.322" filterUnits="userSpaceOnUse" color-interpolation-filters="sRGB">
<feFlood flood-opacity="0" result="BackgroundImageFix"/>
<feColorMatrix in="SourceAlpha" type="matrix" values="0 0 0 0 0 0 0 0 0 0 0 0 0 0 0 0 0 0 127 0" result="hardAlpha"/>
<feOffset dx="4" dy="2"/>
<feGaussianBlur stdDeviation="6"/>
<feComposite in2="hardAlpha" operator="out"/>
<feColorMatrix type="matrix" values="0 0 0 0 0 0 0 0 0 0 0 0 0 0 0 0 0 0 0.25 0"/>
<feBlend mode="normal" in2="BackgroundImageFix" result="effect1_dropShadow_1747_16"/>
<feBlend mode="normal" in="SourceGraphic" in2="effect1_dropShadow_1747_16" result="shape"/>
</filter>
<filter id="filter1_d_1747_16" x="285.745" y="432.314" width="111.886" height="98.6313" filterUnits="userSpaceOnUse" color-interpolation-filters="sRGB">
<feFlood flood-opacity="0" result="BackgroundImageFix"/>
<feColorMatrix in="SourceAlpha" type="matrix" values="0 0 0 0 0 0 0 0 0 0 0 0 0 0 0 0 0 0 127 0" result="hardAlpha"/>
<feOffset dx="4" dy="2"/>
<feGaussianBlur stdDeviation="6"/>
<feComposite in2="hardAlpha" operator="out"/>
<feColorMatrix type="matrix" values="0 0 0 0 0.67451 0 0 0 0 0.713726 0 0 0 0 0.772549 0 0 0 0.4 0"/>
<feBlend mode="normal" in2="BackgroundImageFix" result="effect1_dropShadow_1747_16"/>
<feBlend mode="normal" in="SourceGraphic" in2="effect1_dropShadow_1747_16" result="shape"/>
</filter>
<radialGradient id="paint0_radial_1747_16" cx="0" cy="0" r="1" gradientUnits="userSpaceOnUse" gradientTransform="translate(424.791 369.963) rotate(105.902) scale(317.356 317.553)">
<stop stop-color="#271A4E"/>
<stop offset="1" stop-color="#0F072A"/>
</radialGradient>
<linearGradient id="paint1_linear_1747_16" x1="130.842" y1="243.928" x2="544.856" y2="243.928" gradientUnits="userSpaceOnUse">
<stop stop-color="#DDDAE8"/>
<stop offset="1" stop-color="#655D7D"/>
</linearGradient>
<linearGradient id="paint2_linear_1747_16" x1="130.833" y1="421.693" x2="544.845" y2="421.693" gradientUnits="userSpaceOnUse">
<stop stop-color="#655D7D"/>
<stop offset="1" stop-color="#DDDAE8"/>
</linearGradient>
<linearGradient id="paint3_linear_1747_16" x1="293.771" y1="442.325" x2="383.071" y2="531.625" gradientUnits="userSpaceOnUse">
<stop stop-color="#655D7D"/>
<stop offset="0.9" stop-color="#DDDAE8"/>
</linearGradient>
<linearGradient id="paint4_linear_1747_16" x1="912" y1="114.393" x2="952.581" y2="192.936" gradientUnits="userSpaceOnUse">
<stop stop-color="#53389E"/>
<stop offset="0.73" stop-color="#7F56D9"/>
<stop offset="1" stop-color="#9E77ED"/>
</linearGradient>
</defs>
</svg>
