<svg width="1434" height="378" viewBox="0 0 1434 378" fill="none" xmlns="http://www.w3.org/2000/svg">
<path d="M1279.53 372.764V116.189H1350.22V152.843H1352.84C1358.6 144.988 1364.88 138.181 1372.21 131.898C1384.78 121.426 1403.63 110.953 1428.76 110.953H1434V186.878L1428.24 185.831C1424.05 185.307 1418.29 184.26 1410.44 184.26C1376.4 184.26 1350.22 210.441 1350.22 252.331V372.764H1279.53Z" fill="#F6F6F9"/>
<path d="M1158.89 372.763V6.22852H1229.58V372.763H1158.89Z" fill="#F6F6F9"/>
<path d="M855.133 372.763V6.22852H925.821V152.842H928.44C933.676 144.988 940.483 138.181 948.337 131.898C962.475 121.425 981.849 110.953 1009.6 110.953C1070.34 110.953 1124.8 166.457 1124.8 244.476C1124.8 323.019 1070.34 378 1009.6 378C981.849 378 962.475 367.527 948.337 357.055C940.483 350.771 933.676 343.964 928.44 336.11H925.821V372.763H855.133ZM988.656 312.547C1025.31 312.547 1054.11 283.748 1054.11 244.476C1054.11 205.205 1025.31 176.405 988.656 176.405C952.002 176.405 923.203 205.205 923.203 244.476C923.203 283.748 952.002 312.547 988.656 312.547Z" fill="#F6F6F9"/>
<path d="M685.037 312.547C721.691 312.547 750.49 283.748 750.49 244.477C750.49 205.205 721.691 176.406 685.037 176.406C648.384 176.406 619.585 205.205 619.585 244.477C619.585 283.748 648.384 312.547 685.037 312.547ZM548.896 244.477C548.896 171.17 609.112 110.953 685.037 110.953C760.963 110.953 821.179 171.17 821.179 244.477C821.179 317.783 760.963 378 685.037 378C609.112 378 548.896 317.783 548.896 244.477Z" fill="#F6F6F9"/>
<path d="M122.268 372.764V116.189H192.956V152.843H195.575C200.287 144.988 205.523 138.181 212.33 131.898C224.374 121.426 241.13 110.953 266.263 110.953C293.492 110.953 312.866 122.473 324.909 133.469C331.716 139.752 337.476 147.083 342.188 155.461H344.807C350.566 147.083 357.897 139.752 366.275 133.469C380.413 122.473 400.834 110.953 428.586 110.953C478.854 110.953 517.602 150.225 517.602 213.059V372.764H446.913V223.532C446.913 194.209 431.728 179.024 405.023 179.024C375.7 179.024 355.279 199.969 355.279 231.386V372.764H284.59V223.532C284.59 194.209 269.405 179.024 242.7 179.024C213.378 179.024 192.956 199.969 192.956 231.386V372.764H122.268Z" fill="#F6F6F9"/>
<path d="M4.63696 372.764V116.19H75.3258V372.764H4.63696Z" fill="#F6F6F9"/>
<path d="M40.8424 0.393066C18.3267 0.393066 0 18.7198 0 39.6646C0 60.6095 17.8031 78.9363 40.3188 78.9363C62.8345 78.9363 81.1613 60.6095 81.1613 39.6646C81.1613 18.7198 63.3582 0.393066 40.8424 0.393066Z" fill="url(#paint0_linear_1806_18)"/>
<defs>
<linearGradient id="paint0_linear_1806_18" x1="0" y1="0.393066" x2="40.5806" y2="78.9363" gradientUnits="userSpaceOnUse">
<stop stop-color="#9C87D5"/>
<stop offset="0.73" stop-color="#C7B2F3"/>
<stop offset="1" stop-color="#E2D6FB"/>
</linearGradient>
</defs>
</svg>
